<svg width="25" height="25" viewBox="0 0 25 25" fill="none" xmlns="http://www.w3.org/2000/svg">
<path fill-rule="evenodd" clip-rule="evenodd" d="M6.55495 2.67325C7.03636 2.28514 9.3427 1.07958 10.4884 1.56697C10.8261 1.72561 11.0548 2.05386 11.2131 2.39486C11.5766 3.17762 12.4229 5.94202 12.3482 6.4299C12.1629 7.62578 10.6195 7.78204 10.6033 9.05067C10.6836 11.9575 11.7782 14.3895 13.8889 16.3474C14.8419 17.1622 15.965 16.0721 16.9748 16.7102C17.3855 16.9704 18.8901 19.4279 19.2351 20.2193C19.3848 20.5627 19.4803 20.9548 19.3779 21.3192C18.9591 22.5806 16.4385 23.5577 15.989 23.6354C14.8818 23.9447 13.7477 23.5116 12.6031 22.3423C9.3378 19.2715 5.43577 10.8169 5.3076 6.13205C5.19922 4.49938 5.58722 3.32095 6.55495 2.67325Z" stroke="white" stroke-width="1.5" stroke-linecap="round" stroke-linejoin="round"/>
</svg>
